<svg width="22" height="18" viewBox="0 0 22 18" fill="none" xmlns="http://www.w3.org/2000/svg">
<path fill-rule="evenodd" clip-rule="evenodd" d="M5.27097 0.301753C9.0827 -0.039061 12.9173 -0.0390609 16.729 0.301753L18.3728 0.448727C20.0112 0.595219 21.335 1.84688 21.5729 3.4745C22.1086 7.1387 22.1086 10.8613 21.5729 14.5255C21.335 16.1531 20.0112 17.4048 18.3728 17.5513L16.729 17.6983C12.9173 18.0391 9.08271 18.0391 5.27097 17.6983L3.62718 17.5513C1.98878 17.4048 0.665001 16.1531 0.427044 14.5255C-0.108657 10.8613 -0.108657 7.1387 0.427044 3.47451C0.665001 1.84688 1.98878 0.595219 3.62718 0.448727L5.27097 0.301753ZM4.34351 3.40963C4.09171 3.27404 3.78718 3.28082 3.54166 3.42746C3.29615 3.57411 3.1458 3.83903 3.1458 4.12501V14.4167C3.1458 14.8654 3.50957 15.2292 3.9583 15.2292C4.40703 15.2292 4.7708 14.8654 4.7708 14.4167V5.48531L10.6148 8.63206C10.8552 8.76155 11.1447 8.76155 11.3852 8.63206L17.2291 5.48531V14.4167C17.2291 14.8654 17.5929 15.2292 18.0416 15.2292C18.4904 15.2292 18.8541 14.8654 18.8541 14.4167V4.12501C18.8541 3.83903 18.7038 3.57411 18.4583 3.42746C18.2128 3.28082 17.9082 3.27404 17.6564 3.40963L11 6.99387L4.34351 3.40963Z" fill="black"/>
</svg>
