<svg width="27" height="26" viewBox="0 0 27 26" fill="none" xmlns="http://www.w3.org/2000/svg">
<path fill-rule="evenodd" clip-rule="evenodd" d="M8.23642 4.30175C12.0482 3.96094 15.8827 3.96094 19.6944 4.30175L21.3382 4.44873C22.9766 4.59522 24.3004 5.84688 24.5384 7.4745C25.0741 11.1387 25.0741 14.8613 24.5384 18.5255C24.3004 20.1531 22.9766 21.4048 21.3382 21.5513L19.6944 21.6983C15.8827 22.0391 12.0482 22.0391 8.23642 21.6983L6.59263 21.5513C4.95424 21.4048 3.63046 20.1531 3.3925 18.5255C2.8568 14.8613 2.8568 11.1387 3.3925 7.47451C3.63046 5.84688 4.95424 4.59522 6.59263 4.44873L8.23642 4.30175ZM7.30896 7.40963C7.05717 7.27404 6.75263 7.28082 6.50712 7.42746C6.2616 7.57411 6.11126 7.83903 6.11126 8.12501V18.4167C6.11126 18.8654 6.47503 19.2292 6.92376 19.2292C7.37249 19.2292 7.73626 18.8654 7.73626 18.4167V9.48531L13.5802 12.6321C13.8207 12.7615 14.1101 12.7615 14.3506 12.6321L20.1946 9.48531V18.4167C20.1946 18.8654 20.5584 19.2292 21.0071 19.2292C21.4558 19.2292 21.8196 18.8654 21.8196 18.4167V8.12501C21.8196 7.83903 21.6692 7.57411 21.4237 7.42746C21.1782 7.28082 20.8737 7.27404 20.6219 7.40963L13.9654 10.9939L7.30896 7.40963Z" fill="white"/>
</svg>
