<svg width="24" height="23" viewBox="0 0 24 23" fill="none" xmlns="http://www.w3.org/2000/svg">
<path d="M12 0C5.25 0 0 5.00669 0 11.4439C0 18.9539 7.125 22.1725 8.25 22.1725C9 22.1725 9 21.8149 9 21.4573V19.6691C6.375 20.3844 5.25 18.9539 4.875 17.881C4.875 17.881 4.875 17.5234 4.125 16.8082C3.75 16.4506 2.25 15.7353 3.75 15.7353C4.875 15.7353 5.625 17.1658 5.625 17.1658C6.75 18.5963 8.25 18.2387 9 17.881C9 17.1658 9.75 16.4506 9.75 16.4506C6.75 16.0929 4.5 15.0201 4.5 11.0862C4.5 9.65576 4.875 8.5829 5.625 7.86766C5.625 7.86766 4.875 6.43718 5.625 4.64907C5.625 4.64907 7.5 4.64907 9 6.07955C10.125 5.36431 13.875 5.36431 15 6.07955C16.5 4.64907 18.375 4.64907 18.375 4.64907C19.125 7.15242 18.375 7.86766 18.375 7.86766C19.125 8.5829 19.5 9.65576 19.5 11.0862C19.5 15.0201 16.875 16.0929 14.25 16.4506C14.625 16.8082 15 17.5234 15 18.5963V21.4573C15 21.8149 15 22.1725 15.75 22.1725C16.875 22.1725 24 18.9539 24 11.4439C24 5.00669 18.75 0 12 0Z" fill="black"/>
</svg>
