<svg width="18" height="17" viewBox="0 0 18 17" fill="none" xmlns="http://www.w3.org/2000/svg">
<path d="M8.68278 0C3.79872 0 0 3.61404 0 8.26065C0 13.6817 5.1554 16.005 5.96941 16.005C6.51208 16.005 6.51208 15.7469 6.51208 15.4887V14.198C4.61273 14.7143 3.79872 13.6817 3.52738 12.9073C3.52738 12.9073 3.52738 12.6491 2.98471 12.1328C2.71337 11.8747 1.62802 11.3584 2.71337 11.3584C3.52738 11.3584 4.07005 12.391 4.07005 12.391C4.88406 13.4236 5.96941 13.1654 6.51208 12.9073C6.51208 12.391 7.05476 11.8747 7.05476 11.8747C4.88406 11.6165 3.25604 10.8421 3.25604 8.00251C3.25604 6.96993 3.52738 6.19549 4.07005 5.6792C4.07005 5.6792 3.52738 4.64662 4.07005 3.35589C4.07005 3.35589 5.42674 3.35589 6.51208 4.38847C7.3261 3.87218 10.0395 3.87218 10.8535 4.38847C11.9388 3.35589 13.2955 3.35589 13.2955 3.35589C13.8382 5.16291 13.2955 5.6792 13.2955 5.6792C13.8382 6.19549 14.1095 6.96993 14.1095 8.00251C14.1095 10.8421 12.2102 11.6165 10.3108 11.8747C10.5821 12.1328 10.8535 12.6491 10.8535 13.4236V15.4887C10.8535 15.7469 10.8535 16.005 11.3961 16.005C12.2102 16.005 17.3656 13.6817 17.3656 8.26065C17.3656 3.61404 13.5668 0 8.68278 0Z" fill="black"/>
</svg>
