<svg width="25" height="24" viewBox="0 0 25 24" fill="none" xmlns="http://www.w3.org/2000/svg">
<path d="M5.71533 1.875C4.54173 1.875 3.59033 2.82639 3.59033 4C3.59033 5.1736 4.54173 6.125 5.71533 6.125C6.88894 6.125 7.84033 5.1736 7.84033 4C7.84033 2.82639 6.88894 1.875 5.71533 1.875Z" fill="white"/>
<path d="M3.71533 7.875C3.6463 7.875 3.59033 7.93096 3.59033 8V21C3.59033 21.069 3.6463 21.125 3.71533 21.125H7.71533C7.78437 21.125 7.84033 21.069 7.84033 21V8C7.84033 7.93096 7.78437 7.875 7.71533 7.875H3.71533Z" fill="white"/>
<path d="M10.2153 7.875C10.1463 7.875 10.0903 7.93096 10.0903 8V21C10.0903 21.069 10.1463 21.125 10.2153 21.125H14.2153C14.2844 21.125 14.3403 21.069 14.3403 21V14C14.3403 13.5027 14.5379 13.0258 14.8895 12.6742C15.2411 12.3225 15.7181 12.125 16.2153 12.125C16.7126 12.125 17.1895 12.3225 17.5412 12.6742C17.8928 13.0258 18.0903 13.5027 18.0903 14V21C18.0903 21.069 18.1463 21.125 18.2153 21.125H22.2153C22.2844 21.125 22.3403 21.069 22.3403 21V12.3802C22.3403 9.9535 20.2297 8.05499 17.8152 8.2745C17.0705 8.34219 16.3343 8.52731 15.6468 8.82194L14.3403 9.38186V8C14.3403 7.93096 14.2844 7.875 14.2153 7.875H10.2153Z" fill="white"/>
</svg>
