<svg width="19" height="19" viewBox="0 0 19 19" fill="none" xmlns="http://www.w3.org/2000/svg">
<path d="M9.49998 2.77087C5.78356 2.77087 2.77081 5.78362 2.77081 9.50004C2.77081 13.2165 5.78356 16.2292 9.49998 16.2292C12.9973 16.2292 15.871 13.5616 16.1982 10.1498C16.2134 9.99101 16.1318 9.8386 15.9912 9.7632C15.8507 9.68779 15.6786 9.70414 15.5547 9.80465C14.8741 10.3569 14.0075 10.6875 13.0625 10.6875C10.8764 10.6875 9.10415 8.91533 9.10415 6.72921C9.10415 5.43079 9.72889 4.27839 10.6959 3.55594C10.8237 3.46042 10.8817 3.29746 10.8429 3.14265C10.8041 2.98784 10.6762 2.87146 10.5184 2.84749C10.1861 2.79702 9.84594 2.77087 9.49998 2.77087Z" fill="white"/>
</svg>
