<svg width="147" height="64" viewBox="0 0 147 64" fill="none" xmlns="http://www.w3.org/2000/svg">
<path d="M115 40L107.32 60" stroke="black" stroke-width="3.5" stroke-linecap="round"/>
<path d="M98.9999 40L107.32 60" stroke="black" stroke-width="3.5" stroke-linecap="round"/>
<path d="M145 60L137.32 40" stroke="black" stroke-width="3.5" stroke-linecap="round"/>
<path d="M129 60L137.32 40" stroke="black" stroke-width="3.5" stroke-linecap="round"/>
<path d="M138.025 17.652C138.431 17.652 138.769 17.7197 139.04 17.855C139.311 17.9903 139.523 18.2127 139.678 18.522L144.956 29.571C145.246 30.151 145.323 30.615 145.188 30.963C145.053 31.311 144.705 31.6203 144.144 31.891C143.564 32.181 143.1 32.2777 142.752 32.181C142.404 32.0843 142.095 31.7267 141.824 31.108L138.025 22.205L134.284 30.934C134.013 31.572 133.704 31.9683 133.356 32.123C133.008 32.297 132.505 32.2197 131.848 31.891C131.191 31.5623 130.843 31.195 130.804 30.789C130.765 30.4023 130.872 29.9577 131.123 29.455L136.372 18.522C136.527 18.232 136.739 18.0193 137.01 17.884C137.281 17.7293 137.619 17.652 138.025 17.652Z" fill="black"/>
<path d="M55.025 17.652C55.431 17.652 55.7693 17.7197 56.04 17.855C56.3107 17.9903 56.5233 18.2127 56.678 18.522L61.956 29.571C62.246 30.151 62.3233 30.615 62.188 30.963C62.0527 31.311 61.7047 31.6203 61.144 31.891C60.564 32.181 60.1 32.2777 59.752 32.181C59.404 32.0843 59.0947 31.7267 58.824 31.108L55.025 22.205L51.284 30.934C51.0133 31.572 50.704 31.9683 50.356 32.123C50.008 32.297 49.5053 32.2197 48.848 31.891C48.1907 31.5623 47.8427 31.195 47.804 30.789C47.7653 30.4023 47.8717 29.9577 48.123 29.455L53.372 18.522C53.5267 18.232 53.7393 18.0193 54.01 17.884C54.2807 17.7293 54.619 17.652 55.025 17.652Z" fill="black"/>
<path d="M27.25 23.592C27.25 25.81 25.2579 27.842 22.5 27.842C19.7421 27.842 17.75 25.81 17.75 23.592C17.75 21.3741 19.7421 19.342 22.5 19.342C25.2579 19.342 27.25 21.3741 27.25 23.592Z" stroke="black" stroke-width="3.5"/>
<path d="M6.68335 19.7867C10.3596 13.1253 21.7456 3.2836 37.8793 17.2081" stroke="black" stroke-width="3.5"/>
<path d="M7.71436 55.8778C11.7844 61.3767 29.19 65.3606 37.1021 55.8778" stroke="black" stroke-width="3.5" stroke-linecap="round"/>
<path d="M36.9583 15.6272L42 10.47" stroke="black" stroke-width="3.5" stroke-linecap="round"/>
<path d="M7.15175 18.1506L1.99999 14.6892" stroke="black" stroke-width="3.5" stroke-linecap="round"/>
<path d="M29.2095 11.437L33.0437 4.38527" stroke="black" stroke-width="3.5" stroke-linecap="round"/>
<path d="M13.4541 12.4038L9.66665 5.2819" stroke="black" stroke-width="3.5" stroke-linecap="round"/>
<path d="M21.647 9.82521L21.5692 2.00002" stroke="black" stroke-width="3.5" stroke-linecap="round"/>
<path d="M8 29.592C8 34.842 14.2143 37.0038 22.5 37.0038C32.9685 37.0038 36.0333 41.1215 37 43.592" stroke="black" stroke-width="3.5" stroke-linecap="round"/>
<path d="M104 20.5V31" stroke="black" stroke-width="3.2" stroke-linecap="round"/>
<path d="M55 40V60" stroke="black" stroke-width="3.5" stroke-linecap="round"/>
<path d="M76 40V60" stroke="black" stroke-width="3.5" stroke-linecap="round"/>
<path d="M76 60H86" stroke="black" stroke-width="3.5" stroke-linecap="round"/>
<path d="M69.28 32.18C68.8 32.18 68.4533 32.1067 68.24 31.96C68.0267 31.8 67.8933 31.6 67.84 31.36C67.8 31.1067 67.78 30.8467 67.78 30.58V19.74C67.78 19.4733 67.8 19.2267 67.84 19C67.8933 18.76 68.0267 18.5667 68.24 18.42C68.4533 18.26 68.8067 18.18 69.3 18.18H74.28C75.0667 18.18 75.7667 18.3667 76.38 18.74C76.9933 19.1133 77.48 19.6133 77.84 20.24C78.2 20.8667 78.3733 21.5467 78.36 22.28C78.3733 22.5733 78.3467 22.86 78.28 23.14C78.2133 23.42 78.1133 23.6933 77.98 23.96C77.86 24.2133 77.7067 24.4467 77.52 24.66C77.8 24.9267 78.0333 25.2333 78.22 25.58C78.4067 25.9133 78.5467 26.2667 78.64 26.64C78.7467 27.0133 78.8 27.3933 78.8 27.78C78.7867 28.3933 78.6667 28.9733 78.44 29.52C78.2267 30.0533 77.92 30.52 77.52 30.92C77.12 31.3067 76.66 31.6133 76.14 31.84C75.62 32.0667 75.0667 32.18 74.48 32.18H69.28ZM70.82 29.16H74.28C74.5067 29.16 74.7333 29.12 74.96 29.04C75.2 28.9467 75.3933 28.7867 75.54 28.56C75.7 28.32 75.78 27.9867 75.78 27.56C75.78 27.28 75.7467 27.0467 75.68 26.86C75.6133 26.6733 75.52 26.5333 75.4 26.44C75.28 26.3333 75.1467 26.26 75 26.22C74.8533 26.18 74.7 26.1533 74.54 26.14C74.38 26.1267 74.2267 26.12 74.08 26.12H73.5C73.0467 26.12 72.7267 26.0267 72.54 25.84C72.3533 25.64 72.26 25.3 72.26 24.82C72.26 24.3533 72.36 24.0267 72.56 23.84C72.7733 23.6533 73.1067 23.56 73.56 23.56H74.14C74.2733 23.56 74.4133 23.5533 74.56 23.54C74.7067 23.5267 74.8333 23.4867 74.94 23.42C75.06 23.3533 75.1533 23.2467 75.22 23.1C75.3 22.94 75.34 22.7267 75.34 22.46C75.34 22.0067 75.2267 21.6867 75 21.5C74.7733 21.3 74.3733 21.2 73.8 21.2H70.82V29.16Z" fill="black"/>
<path d="M86.48 32.18C86 32.18 85.6533 32.1067 85.44 31.96C85.2267 31.8133 85.0933 31.62 85.04 31.38C85 31.14 84.98 30.8933 84.98 30.64V19.7C84.98 19.4467 85 19.2067 85.04 18.98C85.0933 18.7533 85.2267 18.5667 85.44 18.42C85.6533 18.2733 86.0067 18.2 86.5 18.2H90.66C91.2067 18.2 91.7667 18.3 92.34 18.5C92.9133 18.7 93.44 19.0067 93.92 19.42C94.4 19.8333 94.7867 20.3467 95.08 20.96C95.3733 21.5733 95.52 22.3 95.52 23.14C95.52 23.7 95.4333 24.24 95.26 24.76C95.1 25.28 94.8533 25.76 94.52 26.2C94.1867 26.64 93.7733 27.02 93.28 27.34C92.7867 27.6467 92.22 27.8667 91.58 28H88.02V30.66C88.02 30.9133 87.9933 31.16 87.94 31.4C87.8867 31.6267 87.7533 31.8133 87.54 31.96C87.3267 32.1067 86.9733 32.18 86.48 32.18ZM94.92 31.78C94.4267 32.14 94.0333 32.28 93.74 32.2C93.4467 32.12 93.14 31.86 92.82 31.42L89.3 26.38L92.72 25.94L95.3 29.64C95.5267 29.96 95.6667 30.2333 95.72 30.46C95.7867 30.6867 95.7533 30.9 95.62 31.1C95.5 31.3 95.2667 31.5267 94.92 31.78ZM88.02 25H90.8C90.9867 25 91.18 24.9667 91.38 24.9C91.58 24.82 91.76 24.7067 91.92 24.56C92.08 24.4133 92.2133 24.22 92.32 23.98C92.4267 23.74 92.48 23.4533 92.48 23.12C92.48 22.7333 92.4 22.4 92.24 22.12C92.0933 21.84 91.88 21.6267 91.6 21.48C91.32 21.32 90.9933 21.24 90.62 21.24H88.02V25Z" fill="black"/>
<path d="M114.3 32.18C113.833 32.18 113.493 32.1067 113.28 31.96C113.067 31.8133 112.933 31.6267 112.88 31.4C112.827 31.16 112.8 30.9067 112.8 30.64V19.66C112.8 19.4067 112.827 19.1733 112.88 18.96C112.933 18.7467 113.067 18.5733 113.28 18.44C113.507 18.2933 113.867 18.22 114.36 18.22C114.84 18.22 115.173 18.28 115.36 18.4C115.547 18.5067 115.713 18.66 115.86 18.86L121.7 26.88V19.66C121.7 19.4067 121.727 19.1733 121.78 18.96C121.847 18.7467 121.987 18.5733 122.2 18.44C122.413 18.2933 122.76 18.22 123.24 18.22C123.733 18.22 124.08 18.2933 124.28 18.44C124.493 18.5867 124.62 18.78 124.66 19.02C124.713 19.2467 124.74 19.4867 124.74 19.74V30.66C124.74 30.9133 124.713 31.16 124.66 31.4C124.607 31.6267 124.473 31.8133 124.26 31.96C124.047 32.1067 123.693 32.18 123.2 32.18C122.827 32.18 122.533 32.1467 122.32 32.08C122.12 32.0133 121.947 31.8867 121.8 31.7L115.84 23.62V30.66C115.84 30.9133 115.813 31.16 115.76 31.4C115.707 31.6267 115.573 31.8133 115.36 31.96C115.147 32.1067 114.793 32.18 114.3 32.18Z" fill="black"/>
</svg>
